name D:\school\WTK\thesis\model\3dpredictsim\Results\Batchsim_tmt_linear\Pog_s1_tmt_bCst_d05_k500_ig24_pas.mot
datacolumns 128
datarows 4
range 0.00000000 0.03308788
endheader
time	pelvis_tilt	pelvis_list	pelvis_rotation	pelvis_tx	pelvis_ty	pelvis_tz	hip_flexion_l	hip_adduction_l	hip_rotation_l	hip_flexion_r	hip_adduction_r	hip_rotation_r	knee_angle_l	knee_angle_r	ankle_angle_l	ankle_angle_r	subtalar_angle_l	subtalar_angle_r	tmt_angle_l	tmt_angle_r	mtp_angle_l	mtp_angle_r	lumbar_extension	lumbar_bending	lumbar_rotation	arm_flex_l	arm_add_l	arm_rot_l	arm_flex_r	arm_add_r	arm_rot_r	elbow_flex_l	elbow_flex_r	pro_sup_l	pro_sup_r	glut_med1_l/activation	glut_med2_l/activation	glut_med3_l/activation	glut_min1_l/activation	glut_min2_l/activation	glut_min3_l/activation	semimem_l/activation	semiten_l/activation	bifemlh_l/activation	bifemsh_l/activation	sar_l/activation	add_long_l/activation	add_brev_l/activation	add_mag1_l/activation	add_mag2_l/activation	add_mag3_l/activation	tfl_l/activation	pect_l/activation	grac_l/activation	glut_max1_l/activation	glut_max2_l/activation	glut_max3_l/activation	iliacus_l/activation	psoas_l/activation	quad_fem_l/activation	gem_l/activation	peri_l/activation	rect_fem_l/activation	vas_med_l/activation	vas_int_l/activation	vas_lat_l/activation	med_gas_l/activation	lat_gas_l/activation	soleus_l/activation	tib_post_l/activation	flex_dig_l/activation	flex_hal_l/activation	tib_ant_l/activation	per_brev_l/activation	per_long_l/activation	per_tert_l/activation	ext_dig_l/activation	ext_hal_l/activation	ercspn_l/activation	intobl_l/activation	extobl_l/activation	glut_med1_r/activation	glut_med2_r/activation	glut_med3_r/activation	glut_min1_r/activation	glut_min2_r/activation	glut_min3_r/activation	semimem_r/activation	semiten_r/activation	bifemlh_r/activation	bifemsh_r/activation	sar_r/activation	add_long_r/activation	add_brev_r/activation	add_mag1_r/activation	add_mag2_r/activation	add_mag3_r/activation	tfl_r/activation	pect_r/activation	grac_r/activation	glut_max1_r/activation	glut_max2_r/activation	glut_max3_r/activation	iliacus_r/activation	psoas_r/activation	quad_fem_r/activation	gem_r/activation	peri_r/activation	rect_fem_r/activation	vas_med_r/activation	vas_int_r/activation	vas_lat_r/activation	med_gas_r/activation	lat_gas_r/activation	soleus_r/activation	tib_post_r/activation	flex_dig_r/activation	flex_hal_r/activation	tib_ant_r/activation	per_brev_r/activation	per_long_r/activation	per_tert_r/activation	ext_dig_r/activation	ext_hal_r/activation	ercspn_r/activation	intobl_r/activation	extobl_r/activation	
          0.00000000	         -2.92682343	         -2.45975366	          6.01564333	          0.00000000	          0.85564338	         -0.00339422	        -18.72075599	         -2.07696268	          7.45637334	         32.00764045	          3.19729281	         -3.09762890	         -6.89128029	        -15.06528954	          0.41472662	          6.46011099	         10.77985252	         -3.03246192	          2.05162923	          0.06642360	         21.34332706	         -0.11502139	         -2.21777746	          0.95749369	         -1.96410473	          7.50010427	        -13.45621331	         15.48449557	        -10.48023628	        -13.57350820	          5.05764722	         40.28723763	         15.80403632	         86.51662706	         86.51662706	          0.25199740	          0.09811381	          0.06635235	          0.30664126	          0.19721491	          0.09831263	          0.05000114	          0.05000021	          0.05000016	          0.07811377	          0.11144277	          0.08094545	          0.05000041	          0.05000040	          0.05000077	          0.05000073	          0.32744328	          0.05003271	          0.05000054	          0.05000526	          0.05000213	          0.05000118	          0.42888325	          0.67051110	          0.05000016	          0.05000058	          0.05000023	          0.23654746	          0.09416219	          0.06783208	          0.05634008	          0.31933968	          0.43463031	          0.29504627	          0.27820475	          0.29878716	          0.38001729	          0.05000002	          0.06179580	          0.17785629	          0.05000020	          0.05000005	          0.05000015	          0.05000002	          0.05000002	          0.05000003	          0.05000040	          0.05000041	          0.05000430	          0.05000043	          0.05000046	          0.05000096	          0.05919105	          0.05919067	          0.31963279	          0.05000050	          0.05000061	          0.11621283	          0.17471352	          0.18744735	          0.16508661	          0.12185651	          0.05000253	          0.05251230	          0.05920217	          0.05000407	          0.07024346	          0.12251976	          0.05253380	          0.05748908	          0.21580410	          0.05207774	          0.05003203	          0.05000162	          0.12365552	          0.12714953	          0.10809507	          0.05289619	          0.05000170	          0.05919105	          0.05000011	          0.05000803	          0.05125568	          0.52675454	          0.37304232	          0.22080895	          0.28977821	          0.56184540	          0.26506243	          0.06755075	          0.09730135	          0.09807293	
          0.01102929	         -2.91794614	         -2.56266475	          6.28074172	          0.01680634	          0.85452269	         -0.00317191	        -18.50075894	         -2.39664636	          7.26850469	         31.41607433	          3.61326440	         -2.92116536	         -9.03019116	        -15.03481972	         -0.48104835	          5.86947551	         11.83384962	         -3.53606446	          1.96372113	          0.07886265	         22.50182823	         -0.10236445	         -2.00090494	          1.19713183	         -2.05441383	          7.28816983	        -13.46907762	         15.70220395	        -11.60842204	        -13.56273395	          4.96429170	         41.47421961	         15.72020012	         86.51662706	         86.51662706	          0.21286781	          0.08287892	          0.05919358	          0.25902674	          0.16659182	          0.08304689	          0.05000478	          0.05000044	          0.05000058	          0.06598444	          0.09413846	          0.17341007	          0.11465108	          0.07007096	          0.05005100	          0.05000217	          0.27659873	          0.10772116	          0.05981876	          0.05000313	          0.05000175	          0.05000170	          0.36228714	          0.60556133	          0.05015665	          0.06933846	          0.05919134	          0.19981685	          0.14399271	          0.16291830	          0.16291838	          0.26975322	          0.36714176	          0.24923205	          0.23500590	          0.25239257	          0.32100928	          0.05000003	          0.05220034	          0.15141302	          0.05000011	          0.05000003	          0.05000015	          0.05362356	          0.07007165	          0.05000010	          0.05000023	          0.05000043	          0.05000042	          0.05000047	          0.05000054	          0.05000037	          0.05000008	          0.05000013	          0.27761588	          0.05000022	          0.05001995	          0.09816816	          0.14758467	          0.28622947	          0.20416522	          0.11796319	          0.05000023	          0.05001011	          0.05000971	          0.05919003	          0.05933665	          0.14273784	          0.05000029	          0.05000202	          0.54714832	          0.13212930	          0.11203319	          0.07007166	          0.21693751	          0.21986321	          0.19037669	          0.05000000	          0.05000002	          0.05000000	          0.05000018	          0.05919636	          0.05000072	          0.61020453	          0.31511734	          0.21501220	          0.49811787	          0.60592417	          0.26726243	          0.05706161	          0.08219259	          0.08284436	
          0.02205859	         -2.90482951	         -2.66660570	          6.51732426	          0.03389812	          0.85339457	         -0.00296109	        -18.19284292	         -2.70512488	          7.06985807	         30.68124424	          3.96282799	         -2.66804697	        -11.31343097	        -15.49502585	         -1.55160393	          5.27065409	         12.83269367	         -4.06871381	          1.83411768	         -0.05161468	         23.51262339	         -0.14571926	         -1.76249354	          1.44254825	         -2.13286812	          6.98822481	        -13.48044030	         15.85080842	        -12.73836590	        -13.55575574	          4.92482330	         42.62325185	         15.65931098	         86.51662706	         86.51662706	          0.30645647	          0.07000967	          0.05000259	          0.21880583	          0.14072383	          0.07015157	          0.05000276	          0.05000043	          0.05000044	          0.05573854	          0.07952107	          0.16599144	          0.19578701	          0.05919191	          0.05919020	          0.05918175	          0.23365024	          0.09101282	          0.05157247	          0.05062682	          0.05483899	          0.05918935	          0.30603194	          0.55884701	          0.05919099	          0.05857239	          0.05000029	          0.16878968	          0.13762097	          0.13762127	          0.13762119	          0.22786645	          0.31013269	          0.21053177	          0.19851467	          0.21320168	          0.27116368	          0.05000002	          0.05000074	          0.20008780	          0.05000008	          0.05000005	          0.05000013	          0.06433235	          0.05919107	          0.05000012	          0.30434882	          0.05000024	          0.34055079	          0.05000062	          0.05000045	          0.28389972	          0.08329746	          0.05000163	          0.23451108	          0.05000023	          0.05000048	          0.08295158	          0.19966375	          0.24178469	          0.18985350	          0.15583026	          0.05000065	          0.05926983	          0.14470643	          0.05000023	          0.05012307	          0.12059562	          0.05295690	          0.05000059	          0.46218820	          0.11161263	          0.18916338	          0.05919109	          0.18325196	          0.18572340	          0.16081545	          0.05919119	          0.05919124	          0.05919110	          0.05919097	          0.05000477	          0.05919089	          0.51545315	          0.40736412	          0.20937338	          0.42077151	          0.60676831	          0.22576249	          0.05032014	          0.09292774	          0.06998046	
          0.03308788	         -2.88962313	         -2.76711529	          6.71880114	          0.05107915	          0.85227410	         -0.00273199	        -17.77648243	         -2.99495319	          6.86649115	         29.82044710	          4.27022572	         -2.39929343	        -13.75183182	        -15.98312230	         -2.76712272	          4.88801991	         13.75835509	         -4.61074698	          1.66024411	         -0.01980506	         24.26411282	         -0.17738121	         -1.52265539	          1.68670492	         -2.20213509	          6.63149817	        -13.49745760	         15.94961622	        -13.81892208	        -13.55134059	          4.95481313	         43.71673877	         15.58783164	         86.51662706	         86.51662706	          0.25887073	          0.05913873	          0.05000003	          0.28847674	          0.11887257	          0.05925861	          0.05000258	          0.05000013	          0.05000012	          0.05000015	          0.06717368	          0.16535625	          0.16538587	          0.05000093	          0.05000078	          0.05000057	          0.23302062	          0.07688326	          0.05000031	          0.05000074	          0.05000047	          0.05000031	          0.25851192	          0.50226499	          0.05000006	          0.05000027	          0.05000015	          0.14258036	          0.11625192	          0.11625199	          0.11625199	          0.19248378	          0.26197589	          0.17784080	          0.16768973	          0.18009625	          0.22905800	          0.09397582	          0.15354556	          0.16901997	          0.05000166	          0.16548809	          0.05000138	          0.09138815	          0.05000001	          0.05000004	          0.35727487	          0.31792914	          0.41790384	          0.21431119	          0.21274214	          0.23981689	          0.07036412	          0.11239727	          0.19809667	          0.07008059	          0.05000148	          0.07007107	          0.16866038	          0.20424113	          0.16154216	          0.17495963	          0.05000028	          0.05006699	          0.12224213	          0.23876309	          0.18371197	          0.16413739	          0.05000009	          0.05000011	          0.39042057	          0.09428196	          0.15979086	          0.05000007	          0.15479756	          0.21558171	          0.16093602	          0.05000011	          0.05000017	          0.05000003	          0.05000000	          0.05000043	          0.05000024	          0.64460629	          0.38235848	          0.19426618	          0.66620561	          0.67353008	          0.36362221	          0.07876771	          0.07849820	          0.05911404	
